<svg width="20" height="20" viewBox="0 0 20 20" fill="none" xmlns="http://www.w3.org/2000/svg">
<g clip-path="url(#clip0_2_7943)">
<path d="M18.4396 3.21164L15.7857 0.557766C15.619 0.391116 15.3974 0.299316 15.1617 0.299316H3.9878C3.50124 0.299316 3.10536 0.695204 3.10536 1.18177V9.91867H2.48481C1.83246 9.91867 1.30176 10.4494 1.30176 11.1017V16.5126C1.30176 17.1649 1.83246 17.6957 2.48481 17.6957H11.8035C12.2901 17.6957 12.686 17.2998 12.686 16.8132V12.6048C12.686 12.1182 12.2901 11.7223 11.8035 11.7223H2.48481C2.14262 11.7223 1.86426 11.4439 1.86426 11.1018C1.86426 10.7596 2.14262 10.4812 2.48481 10.4812H3.10536V10.8013C3.10536 10.9566 3.23128 11.0825 3.38661 11.0825C3.54193 11.0825 3.66785 10.9566 3.66785 10.8013V1.18177C3.66785 1.00533 3.8114 0.861816 3.9878 0.861816H14.8289V3.5866C14.8289 3.90745 15.0899 4.16849 15.4108 4.16849H18.1356V18.6169C18.1356 18.7933 17.992 18.9368 17.8156 18.9368H3.9878C3.81137 18.9368 3.66785 18.7933 3.66785 18.6169C3.66785 18.4615 3.54193 18.3356 3.38661 18.3356C3.23128 18.3356 3.10536 18.4615 3.10536 18.6169C3.10536 19.1035 3.50124 19.4993 3.9878 19.4993H17.8156C18.3022 19.4993 18.6981 19.1034 18.6981 18.6169V3.83564C18.6981 3.59995 18.6063 3.37833 18.4396 3.21164V3.21164ZM2.48481 12.2848H11.8035C11.98 12.2848 12.1235 12.4284 12.1235 12.6048V16.8133C12.1235 16.9897 11.9799 17.1332 11.8035 17.1332H2.48481C2.14262 17.1332 1.86426 16.8548 1.86426 16.5126V12.1086C2.04474 12.2203 2.25737 12.2848 2.48481 12.2848ZM15.3914 3.5866V0.959054L18.0384 3.60599H15.4108C15.4001 3.60599 15.3914 3.59729 15.3914 3.5866Z" fill="#00ADBB"/>
<path d="M9.27148 16.1839C9.4268 16.1839 9.55273 16.058 9.55273 15.9026V14.9676H10.1621C10.3175 14.9676 10.4434 14.8417 10.4434 14.6864C10.4434 14.5311 10.3175 14.4051 10.1621 14.4051H9.55273V13.7966H10.239C10.3943 13.7966 10.5203 13.6707 10.5203 13.5154C10.5203 13.36 10.3943 13.2341 10.239 13.2341H9.27148C9.11616 13.2341 8.99023 13.36 8.99023 13.5154V15.9026C8.99023 16.0579 9.11616 16.1839 9.27148 16.1839V16.1839Z" fill="#00ADBB"/>
<path d="M6.31537 16.0753C6.36805 16.1276 6.4393 16.1569 6.51351 16.1569H6.51456C6.53455 16.1569 7.00574 16.1551 7.19395 16.1518C7.88894 16.1396 8.39339 15.5328 8.39339 14.7088C8.39339 13.8427 7.90165 13.2607 7.16973 13.2607H6.50879C6.43409 13.2607 6.3625 13.2904 6.30974 13.3433C6.25698 13.3962 6.22739 13.4679 6.22754 13.5425V13.5444V13.5444V15.8378C6.22754 15.8571 6.22949 15.876 6.2332 15.8942C6.2377 15.9624 6.26658 16.0269 6.31537 16.0753ZM7.16973 13.8232C7.65723 13.8232 7.83089 14.2807 7.83089 14.7088C7.83089 15.3093 7.50606 15.5838 7.18413 15.5893C7.09465 15.5909 6.93501 15.5922 6.79379 15.593C6.79289 15.3171 6.79101 14.1103 6.79053 13.8232H7.16973Z" fill="#00ADBB"/>
<path d="M3.97949 16.1928C4.13482 16.1928 4.26075 16.067 4.26075 15.9116V15.1467C4.4004 15.146 4.55917 15.1453 4.6491 15.1453C5.18573 15.1453 5.6223 14.7147 5.6223 14.1854C5.6223 13.6561 5.18573 13.2255 4.6491 13.2255H3.97949C3.90476 13.2255 3.83309 13.2552 3.78029 13.3082C3.72772 13.3609 3.69828 13.4323 3.69828 13.5067H3.69824V15.9116C3.69824 16.067 3.82417 16.1928 3.97949 16.1928ZM4.6491 13.788C4.87174 13.788 5.0598 13.97 5.0598 14.1854C5.0598 14.4008 4.87174 14.5828 4.6491 14.5828C4.55977 14.5828 4.40298 14.5835 4.26386 14.5842C4.26311 14.4406 4.26198 13.9383 4.26157 13.788H4.6491V13.788Z" fill="#00ADBB"/>
<path d="M9.24751 8.45417C8.55627 8.67235 7.84681 8.97433 7.46836 9.36497C7.1561 9.68728 7.09951 10.0612 7.31308 10.391C7.45801 10.6147 7.65725 10.7317 7.88127 10.7317C7.96726 10.7317 8.05692 10.7144 8.14854 10.6794C8.47902 10.553 8.83595 10.1935 9.23971 9.5803C9.37006 9.38233 9.50202 9.16232 9.63338 8.92431C9.6812 8.91025 9.72995 8.89626 9.77982 8.88231C10.5735 8.66023 11.4715 8.49906 12.2596 8.43171C12.74 8.89626 13.2366 9.25821 13.6599 9.35695C14.1256 9.46558 14.4949 9.25262 14.6474 8.78725C14.7397 8.50536 14.6334 8.23956 14.3628 8.07625C14.0847 7.90828 13.6012 7.82717 12.9264 7.8349C12.7826 7.83655 12.6309 7.8424 12.473 7.85218C12.1698 7.53951 11.8544 7.16582 11.5506 6.75313C11.3153 6.43345 11.1049 6.11353 10.927 5.80945C10.9463 5.74281 10.9647 5.67707 10.9821 5.6125C11.1744 4.89951 11.243 4.35362 11.186 3.98995C11.1036 3.46476 10.7646 3.39017 10.6227 3.38252C10.1395 3.35639 9.81406 3.60017 9.75214 4.03461C9.70294 4.37972 9.81901 4.85455 10.0971 5.44585C10.1632 5.5864 10.2373 5.73126 10.3187 5.8792C10.2884 5.97655 10.2555 6.07783 10.2199 6.18325C9.96061 6.95027 9.60946 7.76758 9.24751 8.45417V8.45417ZM7.89687 10.1677C7.87681 10.1702 7.84299 10.1744 7.78516 10.0852C7.7381 10.0125 7.73555 9.95766 7.77571 9.88281C7.86961 9.70776 8.1902 9.46213 8.81056 9.20841C8.37759 9.87996 8.054 10.1481 7.89687 10.1677V10.1677ZM14.1175 8.59296C14.1171 8.59645 14.116 8.60267 14.1129 8.61212C14.0426 8.82647 13.9482 8.84668 13.7877 8.80922C13.5917 8.76351 13.3428 8.61872 13.0651 8.39713C13.8169 8.40313 14.0792 8.53858 14.1175 8.59296V8.59296ZM10.309 4.11403C10.3205 4.03363 10.3333 3.94322 10.5473 3.94322C10.5608 3.94322 10.575 3.9436 10.5901 3.94431C10.6542 4.02235 10.6871 4.36956 10.5389 5.05671C10.3644 4.6564 10.2791 4.32385 10.309 4.11403ZM10.7006 6.51418C10.8241 6.7039 10.9569 6.89548 11.0976 7.08666C11.2995 7.36093 11.5276 7.64567 11.7688 7.91747C11.4897 7.95115 11.2019 7.99461 10.9139 8.04688C10.7191 8.08225 10.3794 8.14896 9.98172 8.24815C10.0699 8.06526 10.1569 7.8757 10.242 7.68077C10.4111 7.29343 10.5666 6.8971 10.7006 6.51418V6.51418Z" fill="#00ADBB"/>
</g>
<defs>
<clipPath id="clip0_2_7943">
<rect width="19.2" height="19.2" fill="white" transform="translate(0.400391 0.299316)"/>
</clipPath>
</defs>
</svg>
