<svg width="393" height="56" viewBox="0 0 393 56" fill="none" xmlns="http://www.w3.org/2000/svg">
<path d="M130.5 27.9999C130.5 27.6415 130.644 27.2831 130.932 27.0098L139.983 18.4103C140.559 17.8632 141.493 17.8632 142.068 18.4103C142.644 18.9571 142.644 19.8439 142.068 20.391L134.059 27.9999L142.068 35.609C142.644 36.156 142.644 37.0427 142.068 37.5895C141.492 38.1368 140.559 38.1368 139.983 37.5895L130.931 28.99C130.644 28.7166 130.5 28.3582 130.5 27.9999Z" fill="#00ADBB"/>
<circle cx="172.5" cy="28" r="7.5" transform="rotate(-90 172.5 28)" stroke="#12284C"/>
<circle cx="172.5" cy="28" r="4" transform="rotate(-90 172.5 28)" fill="#12284C"/>
<circle cx="172.5" cy="28" r="3.5" transform="rotate(-90 172.5 28)" stroke="#12284C"/>
<circle cx="192.5" cy="28" r="3.5" transform="rotate(-90 192.5 28)" stroke="#12284C"/>
<circle cx="208.5" cy="28" r="3.5" transform="rotate(-90 208.5 28)" stroke="#12284C"/>
<circle cx="224.5" cy="28" r="3.5" transform="rotate(-90 224.5 28)" stroke="#12284C"/>
<path d="M262.5 28C262.5 28.3585 262.356 28.7169 262.068 28.9901L253.017 37.5897C252.441 38.1368 251.507 38.1368 250.932 37.5897C250.356 37.0429 250.356 36.1561 250.932 35.609L258.941 28L250.932 20.391C250.356 19.8439 250.356 18.9573 250.932 18.4105C251.508 17.8632 252.441 17.8632 253.017 18.4105L262.069 27.0099C262.356 27.2833 262.5 27.6417 262.5 28Z" fill="#00ADBB"/>
</svg>
