<svg width="17" height="18" viewBox="0 0 17 18" fill="none" xmlns="http://www.w3.org/2000/svg">
<path d="M13.2 11.2993C12.7509 11.3016 12.308 11.4047 11.9041 11.6009C11.5001 11.7972 11.1454 12.0817 10.866 12.4333L6.48001 9.69134C6.63986 9.17544 6.63986 8.62324 6.48001 8.10734L10.866 5.36534C11.3112 5.91657 11.9371 6.29245 12.6328 6.42639C13.3286 6.56032 14.0493 6.44368 14.6673 6.09712C15.2853 5.75055 15.7607 5.19644 16.0093 4.53293C16.2579 3.86942 16.2636 3.13935 16.0254 2.47204C15.7872 1.80473 15.3205 1.24326 14.708 0.887079C14.0955 0.530902 13.3767 0.403011 12.6789 0.526063C11.9812 0.649115 11.3495 1.01517 10.8957 1.55937C10.442 2.10358 10.1956 2.79082 10.2 3.49934C10.2028 3.76765 10.2432 4.03424 10.32 4.29134L5.93401 7.03334C5.5468 6.54589 5.01754 6.19097 4.41958 6.01778C3.82163 5.84459 3.18461 5.8617 2.59682 6.06675C2.00903 6.2718 1.49959 6.65462 1.1391 7.16216C0.778624 7.6697 0.584961 8.27681 0.584961 8.89934C0.584961 9.52187 0.778624 10.129 1.1391 10.6365C1.49959 11.1441 2.00903 11.5269 2.59682 11.7319C3.18461 11.937 3.82163 11.9541 4.41958 11.7809C5.01754 11.6077 5.5468 11.2528 5.93401 10.7653L10.32 13.5073C10.2432 13.7644 10.2028 14.031 10.2 14.2993C10.2 14.8927 10.376 15.4727 10.7056 15.9661C11.0352 16.4594 11.5038 16.8439 12.052 17.071C12.6001 17.298 13.2033 17.3575 13.7853 17.2417C14.3672 17.1259 14.9018 16.8402 15.3213 16.4207C15.7409 16.0011 16.0266 15.4666 16.1424 14.8846C16.2581 14.3027 16.1987 13.6995 15.9717 13.1513C15.7446 12.6031 15.3601 12.1346 14.8667 11.8049C14.3734 11.4753 13.7934 11.2993 13.2 11.2993V11.2993ZM13.2 1.69934C13.556 1.69934 13.904 1.80491 14.2 2.0027C14.496 2.20048 14.7268 2.4816 14.863 2.81051C14.9992 3.13942 15.0349 3.50134 14.9654 3.8505C14.896 4.19967 14.7245 4.5204 14.4728 4.77213C14.2211 5.02387 13.9003 5.1953 13.5512 5.26475C13.202 5.33421 12.8401 5.29856 12.5112 5.16232C12.1823 5.02609 11.9012 4.79538 11.7034 4.49937C11.5056 4.20336 11.4 3.85535 11.4 3.49934C11.4 3.02195 11.5897 2.56411 11.9272 2.22655C12.2648 1.88898 12.7226 1.69934 13.2 1.69934V1.69934ZM3.60001 10.6993C3.24401 10.6993 2.89599 10.5938 2.59999 10.396C2.30398 10.1982 2.07327 9.91708 1.93703 9.58817C1.80079 9.25926 1.76515 8.89734 1.8346 8.54818C1.90405 8.19901 2.07549 7.87828 2.32722 7.62655C2.57896 7.37481 2.89968 7.20338 3.24885 7.13393C3.59802 7.06447 3.95994 7.10012 4.28884 7.23636C4.61775 7.3726 4.89887 7.60331 5.09666 7.89931C5.29444 8.19532 5.40001 8.54333 5.40001 8.89934C5.40001 9.37673 5.21037 9.83457 4.87281 10.1721C4.53524 10.5097 4.0774 10.6993 3.60001 10.6993ZM13.2 16.0993C12.844 16.0993 12.496 15.9938 12.2 15.796C11.904 15.5982 11.6733 15.3171 11.537 14.9882C11.4008 14.6593 11.3651 14.2973 11.4346 13.9482C11.5041 13.599 11.6755 13.2783 11.9272 13.0265C12.179 12.7748 12.4997 12.6034 12.8488 12.5339C13.198 12.4645 13.5599 12.5001 13.8888 12.6364C14.2177 12.7726 14.4989 13.0033 14.6967 13.2993C14.8944 13.5953 15 13.9433 15 14.2993C15 14.7767 14.8104 15.2346 14.4728 15.5721C14.1352 15.9097 13.6774 16.0993 13.2 16.0993V16.0993Z" fill="#00ADBB"/>
</svg>
