<svg width="20" height="21" viewBox="0 0 20 21" fill="none" xmlns="http://www.w3.org/2000/svg">
<path fill-rule="evenodd" clip-rule="evenodd" d="M15.901 11.6642L17.4815 13.1724C17.6801 13.3639 17.8147 13.6068 17.8686 13.8705C17.9225 14.1343 17.8933 14.4073 17.7846 14.6553C17.6759 14.9034 17.4926 15.1156 17.2575 15.2653C17.0224 15.4151 16.7461 15.4958 16.463 15.4973H13.5126V15.7806C13.4716 16.6265 13.0788 17.4226 12.4205 17.9942C11.7621 18.5659 10.8918 18.8666 10.0002 18.8304C9.10864 18.8666 8.23832 18.5659 7.57995 17.9942C6.92158 17.4226 6.52886 16.6265 6.48784 15.7806V15.4973H3.53746C3.25434 15.4958 2.97798 15.4151 2.74292 15.2653C2.50785 15.1156 2.32451 14.9034 2.21582 14.6553C2.10713 14.4073 2.07791 14.1343 2.13181 13.8705C2.18571 13.6068 2.32034 13.3639 2.51887 13.1724L4.09943 11.6642V7.77273C4.10097 6.97412 4.28196 6.18501 4.63034 5.45803C4.97871 4.73106 5.48645 4.08296 6.11968 3.55695C6.75291 3.03095 7.49707 2.63916 8.30251 2.4077C9.10795 2.17625 9.95614 2.11046 10.7905 2.21473C12.0756 2.40165 13.2582 2.97732 14.1656 3.85002C13.5919 4.02069 13.0932 4.36274 12.7302 4.81607C12.125 4.3002 11.3735 3.95632 10.5622 3.8313C9.97304 3.75834 9.37422 3.80773 8.80718 3.97607C8.24014 4.14441 7.71842 4.42767 7.27812 4.80624C6.83181 5.17585 6.47397 5.63177 6.22862 6.14342C5.98328 6.65507 5.85609 7.2106 5.85562 7.77273V11.6642C5.8558 11.8841 5.81012 12.1019 5.7212 12.3049C5.63228 12.508 5.50189 12.6924 5.33754 12.8474L4.3014 13.8307H15.699L14.6541 12.8474C14.4913 12.6917 14.3626 12.507 14.2752 12.304C14.1878 12.1009 14.1435 11.8835 14.1448 11.6642V9.33119C14.4152 9.41383 14.7024 9.45832 15.0002 9.45832C15.3147 9.45832 15.6175 9.4087 15.901 9.31692V11.6642ZM11.1708 16.8066C11.4979 16.5489 11.7077 16.1814 11.7564 15.7806V15.4973H8.24402V15.7806C8.29272 16.1814 8.5025 16.5489 8.82965 16.8066C9.1568 17.0643 9.5761 17.1922 10.0002 17.1638C10.4243 17.1922 10.8436 17.0643 11.1708 16.8066Z" fill="white"/>
<ellipse cx="14.8248" cy="6.74999" rx="2.19298" ry="2.08333" fill="#D23A20"/>
</svg>
